/* XPM */
static char *dummy[]={
"4 4 12 1",
"f c None",
". c #121212",
"g c #131212",
"j c #131313",
"c c #191818",
"b c #262524",
"a c #2a2928",
"h c #2a2a2a",
"d c #2c2c2c",
"e c #323131",
"i c #353434",
"# c #363636",
".#ab",
"cdea",
"fghi",
"ffcj"};
