/* XPM */
static char *dummy[]={
"4 4 12 1",
"i c None",
"b c #121212",
"h c #131212",
"j c #131313",
"e c #191818",
". c #262524",
"# c #2a2928",
"g c #2a2a2a",
"d c #2c2c2c",
"c c #323131",
"f c #353434",
"a c #363636",
".#ab",
"#cde",
"fghi",
"jeii"};
