/* XPM */
static char *dummy[]={
"15 23 83 2",
"Qt c #101010",
"#q c #1d1d1c",
".d c #1e1d1c",
".g c #1e1e1d",
".b c #1f1e1e",
".c c #1f1f1e",
".e c #201f1f",
".f c #20201f",
"#g c #212020",
"#j c #212120",
"#e c #222120",
"#i c #222220",
"#f c #232220",
"#c c #232221",
"#h c #232321",
"#d c #242321",
".9 c #242322",
"#. c #252422",
".8 c #252423",
"#a c #252523",
".4 c #262523",
".a c #262524",
".3 c #262525",
".7 c #262624",
".5 c #272624",
".X c #272625",
".2 c #272725",
".6 c #272726",
".1 c #282725",
".Y c #282726",
".Z c #292826",
".V c #292827",
".W c #2a2928",
".Q c #31302f",
".R c #32312f",
".S c #323130",
".P c #333231",
".# c #343332",
".M c #373635",
".O c #383735",
".N c #383736",
".L c #383836",
".E c #3d3c3b",
".F c #3e3d3b",
".H c #3e3d3c",
".K c #3e3e3c",
".J c #3f3e3d",
".A c #444342",
".z c #454442",
".B c #454443",
".C c #454543",
".D c #464544",
".x c #4b4a48",
".w c #4b4a49",
".u c #4b4b49",
".v c #4b4b4a",
".y c #4c4b4b",
"#o c #51504f",
".t c #515050",
".p c #515150",
".n c #525150",
".r c #525250",
"#l c #525251",
".q c #535250",
".o c #535251",
"#k c #535252",
"#n c #535352",
".s c #545351",
"#m c #545353",
"#p c #545453",
"#b c #656463",
"## c #656464",
".0 c #666665",
".U c #6b6a6a",
".T c #6b6b6a",
".I c #717070",
".G c #717170",
".j c #858585",
".i c #868685",
".m c #878685",
".l c #878786",
".k c #888787",
".h c #888887",
"QtQtQtQtQtQtQtQtQtQtQtQtQtQtQt",
".#.#.#.#.#.#.#.#.#.#.#.#.#.#.#",
".a.a.a.a.a.a.a.a.a.a.a.a.a.a.a",
".a.a.a.a.a.a.a.a.a.a.a.a.a.a.a",
".b.c.d.e.c.f.d.d.g.d.d.f.c.c.f",
".h.i.j.k.k.l.i.l.m.m.i.i.k.h.i",
".n.n.o.o.o.p.n.n.q.r.n.n.s.t.o",
".u.v.w.v.x.w.v.v.w.v.x.y.v.w.v",
".z.A.B.A.A.B.B.A.A.z.A.A.C.D.C",
".E.E.F.G.E.F.E.H.H.H.F.I.J.K.J",
".L.M.M.N.N.M.O.M.M.M.M.O.N.L.M",
".P.Q.R.Q.S.T.S.Q.R.U.S.Q.R.Q.P",
".V.W.X.Y.Y.Y.Y.Z.Z.V.Y.Y.Y.Y.V",
".V.V.V.Y.V.X.X.0.X.1.1.X.X.Z.Y",
".X.a.a.Y.2.Y.3.3.3.2.Y.Y.Y.Y.X",
".4.X.5.a.6.0.6.2.6.0.6.2.2.X.X",
".4.7.a.8.7.X.7.X.7.X.a.8.8.9.8",
".8#..9##.a.8.8#a.a.9.8#b.8#c.9",
"#d#c#c.8#e#f#f#f.8#c#d.9.9#d#c",
"#c#e.9#g#e#c#c#e#e#c#c#f#c#f#e",
"#h#i.9#j#c.9.9#e#c#c#c#c#c#c#e",
"#k#l#m.o.p#k#l.p#n#m#l#n#l#o#p",
".g.g.f.e.b#q.g.c.c.c.c.d.c.f.b"};
