/* XPM */
static char *dummy[]={
"15 23 81 2",
"Qt c #101010",
"#o c #1d1d1c",
".d c #1e1d1c",
".g c #1e1e1d",
".b c #1f1e1e",
".c c #1f1f1e",
".e c #201f1f",
".f c #20201f",
"#e c #212020",
"#h c #212120",
"#c c #222120",
"#g c #222220",
"#d c #232220",
"#a c #232221",
"#f c #232321",
"#b c #242321",
".7 c #242322",
".8 c #252422",
".6 c #252423",
"#. c #252523",
".2 c #262523",
".a c #262524",
".1 c #262525",
".5 c #262624",
".3 c #272624",
".V c #272625",
".0 c #272725",
".4 c #272726",
".Z c #282725",
".W c #282726",
".X c #292826",
".T c #292827",
".U c #2a2928",
".P c #31302f",
".Q c #32312f",
".R c #323130",
".O c #333231",
".# c #343332",
".L c #373635",
".N c #383735",
".M c #383736",
".K c #383836",
".E c #3d3c3b",
".F c #3e3d3b",
".H c #3e3d3c",
".J c #3e3e3c",
".I c #3f3e3d",
".A c #444342",
".z c #454442",
".B c #454443",
".C c #454543",
".D c #464544",
".x c #4b4a48",
".w c #4b4a49",
".u c #4b4b49",
".v c #4b4b4a",
".y c #4c4b4b",
"#m c #51504f",
".t c #515050",
".p c #515150",
".n c #525150",
".r c #525250",
"#j c #525251",
".q c #535250",
".o c #535251",
"#i c #535252",
"#l c #535352",
".s c #545351",
"#k c #545353",
"#n c #545453",
"## c #848483",
".9 c #848484",
".Y c #858584",
".j c #858585",
".i c #868685",
".m c #878685",
".l c #878786",
".S c #878787",
".k c #888787",
".h c #888887",
".G c #8a8a8a",
"QtQtQtQtQtQtQtQtQtQtQtQtQtQtQt",
".#.#.#.#.#.#.#.#.#.#.#.#.#.#.#",
".a.a.a.a.a.a.a.a.a.a.a.a.a.a.a",
".a.a.a.a.a.a.a.a.a.a.a.a.a.a.a",
".b.c.d.e.c.f.d.d.g.d.d.f.c.c.f",
".h.i.j.k.k.l.i.l.m.m.i.i.k.h.i",
".n.n.o.o.o.p.n.n.q.r.n.n.s.t.o",
".u.v.w.v.x.w.v.v.w.v.x.y.v.w.v",
".z.A.B.A.A.B.B.A.A.z.A.A.C.D.C",
".E.E.F.G.E.F.E.H.H.H.F.G.I.J.I",
".K.L.L.M.M.L.N.L.L.L.L.N.M.K.L",
".O.P.Q.P.R.S.R.P.Q.S.R.P.Q.P.O",
".T.U.V.W.W.W.W.X.X.T.W.W.W.W.T",
".T.T.T.W.T.V.V.Y.V.Z.Z.V.V.X.W",
".V.a.a.W.0.W.1.1.1.0.W.W.W.W.V",
".2.V.3.a.4.Y.4.0.4.Y.4.0.0.V.V",
".2.5.a.6.5.V.5.V.5.V.a.6.6.7.6",
".6.8.7.9.a.6.6#..a.7.6##.6#a.7",
"#b#a#a.6#c#d#d#d.6#a#b.7.7#b#a",
"#a#c.7#e#c#a#a#c#c#a#a#d#a#d#c",
"#f#g.7#h#a.7.7#c#a#a#a#a#a#a#c",
"#i#j#k.o.p#i#j.p#l#k#j#l#j#m#n",
".g.g.f.e.b#o.g.c.c.c.c.d.c.f.b"};
