/* XPM */
static char *dummy[]={
"15 23 76 2",
"Qt c #101010",
"#j c #1d1d1c",
".d c #1e1d1c",
".g c #1e1e1d",
".b c #1f1e1e",
".c c #1f1f1e",
".e c #201f1f",
".f c #20201f",
"## c #212020",
"#c c #212120",
".9 c #222120",
"#b c #222220",
"#. c #232220",
".7 c #232221",
"#a c #232321",
".8 c #242321",
".4 c #242322",
".5 c #252422",
".3 c #252423",
".Z c #262523",
".a c #262524",
".Y c #262525",
".2 c #262624",
".0 c #272624",
".T c #272625",
".X c #272725",
".1 c #272726",
".W c #282725",
".U c #282726",
".V c #292826",
".R c #292827",
".S c #2a2928",
".O c #31302f",
".P c #32312f",
".Q c #323130",
".N c #333231",
".# c #343332",
".K c #373635",
".M c #383735",
".L c #383736",
".J c #383836",
".E c #3d3c3b",
".F c #3e3d3b",
".G c #3e3d3c",
".I c #3e3e3c",
".H c #3f3e3d",
".A c #444342",
".6 c #444343",
".z c #454442",
".B c #454443",
".C c #454543",
".D c #464544",
".x c #4b4a48",
".w c #4b4a49",
".u c #4b4b49",
".v c #4b4b4a",
".y c #4c4b4b",
"#h c #51504f",
".t c #515050",
".p c #515150",
".n c #525150",
".r c #525250",
"#e c #525251",
".q c #535250",
".o c #535251",
"#d c #535252",
"#g c #535352",
".s c #545351",
"#f c #545353",
"#i c #545453",
".j c #858585",
".i c #868685",
".m c #878685",
".l c #878786",
".k c #888787",
".h c #888887",
"QtQtQtQtQtQtQtQtQtQtQtQtQtQtQt",
".#.#.#.#.#.#.#.#.#.#.#.#.#.#.#",
".a.a.a.a.a.a.a.a.a.a.a.a.a.a.a",
".a.a.a.a.a.a.a.a.a.a.a.a.a.a.a",
".b.c.d.e.c.f.d.d.g.d.d.f.c.c.f",
".h.i.j.k.k.l.i.l.m.m.i.i.k.h.i",
".n.n.o.o.o.p.n.n.q.r.n.n.s.t.o",
".u.v.w.v.x.w.v.v.w.v.x.y.v.w.v",
".z.A.B.A.A.B.B.A.A.z.A.A.C.D.C",
".E.E.F.G.E.F.E.G.G.G.F.E.H.I.H",
".J.K.K.L.L.K.M.K.K.K.K.M.L.J.K",
".N.O.P.O.Q.Q.Q.O.P.O.Q.O.P.O.N",
".R.S.T.U.U.U.U.V.V.R.U.U.U.U.R",
".R.R.R.U.R.T.T.W.T.W.W.T.T.V.U",
".T.a.a.U.X.U.Y.Y.Y.X.U.U.U.U.T",
".Z.T.0.a.1.X.1.X.1.X.1.X.X.T.T",
".Z.2.a.3.2.T.2.T.2.T.a.3.3.4.3",
".3.5.4.B.a.B.3.C.a.6.3.B.3.7.4",
".8.7.7.3.9#.#.#..3.7.8.4.4.8.7",
".7.9.4##.9.7.7.9.9.7.7#..7#..9",
"#a#b.4#c.7.4.4.9.7.7.7.7.7.7.9",
"#d#e#f.o.p#d#e.p#g#f#e#g#e#h#i",
".g.g.f.e.b#j.g.c.c.c.c.d.c.f.b"};
