/* XPM */
static char *dummy[]={
"15 23 81 2",
"Qt c #101010",
"#o c #1d1d1c",
".d c #1e1d1c",
".g c #1e1e1d",
".b c #1f1e1e",
".c c #1f1f1e",
".e c #201f1f",
".f c #20201f",
"#e c #212020",
"#h c #212120",
"#c c #222120",
"#g c #222220",
"#d c #232220",
"#a c #232221",
"#f c #232321",
"#b c #242321",
".9 c #242322",
"#. c #252422",
".8 c #252423",
".3 c #262523",
".a c #262524",
".2 c #262525",
".7 c #262624",
".4 c #272624",
".V c #272625",
".1 c #272725",
".6 c #272726",
".Z c #282725",
".W c #282726",
".X c #292826",
".T c #292827",
".U c #2a2928",
".P c #31302f",
".Q c #32312f",
".S c #323130",
".O c #333231",
".# c #343332",
".L c #373635",
".N c #383735",
".M c #383736",
".K c #383836",
".E c #3d3c3b",
".F c #3e3d3b",
".H c #3e3d3c",
".J c #3e3e3c",
".I c #3f3e3d",
".A c #444342",
".z c #454442",
".B c #454443",
".C c #454543",
".D c #464544",
".x c #4b4a48",
".w c #4b4a49",
".u c #4b4b49",
".v c #4b4b4a",
".y c #4c4b4b",
"#m c #51504f",
".t c #515050",
".p c #515150",
".n c #525150",
".r c #525250",
"#j c #525251",
".q c #535250",
".o c #535251",
"#i c #535252",
"#l c #535352",
".s c #545351",
"#k c #545353",
"#n c #545453",
"## c #848483",
".5 c #848484",
".0 c #858484",
".Y c #858584",
".j c #858585",
".i c #868685",
".m c #878685",
".l c #878786",
".R c #878787",
".k c #888787",
".h c #888887",
".G c #8a8a8a",
"QtQtQtQtQtQtQtQtQtQtQtQtQtQtQt",
".#.#.#.#.#.#.#.#.#.#.#.#.#.#.#",
".a.a.a.a.a.a.a.a.a.a.a.a.a.a.a",
".a.a.a.a.a.a.a.a.a.a.a.a.a.a.a",
".b.c.d.e.c.f.d.d.g.d.d.f.c.c.f",
".h.i.j.k.k.l.i.l.m.m.i.i.k.h.i",
".n.n.o.o.o.p.n.n.q.r.n.n.s.t.o",
".u.v.w.v.x.w.v.v.w.v.x.y.v.w.v",
".z.A.B.A.A.B.B.A.A.z.A.A.C.D.C",
".E.E.F.G.E.G.E.G.H.G.F.G.I.J.I",
".K.L.L.M.M.L.N.L.L.L.L.N.M.K.L",
".O.P.Q.R.S.R.S.R.Q.R.S.R.Q.P.O",
".T.U.V.W.W.W.W.X.X.T.W.W.W.W.T",
".T.T.T.Y.T.V.V.Z.V.Z.Z.0.V.X.W",
".V.a.a.W.1.W.2.2.2.1.W.W.W.W.V",
".3.V.4.5.6.1.6.1.6.1.6.Y.1.V.V",
".3.7.a.8.7.V.7.V.7.V.a.8.8.9.8",
".8#..9.5.a.5.8.5.a##.8##.8#a.9",
"#b#a#a.8#c#d#d#d.8#a#b.9.9#b#a",
"#a#c.9#e#c#a#a#c#c#a#a#d#a#d#c",
"#f#g.9#h#a.9.9#c#a#a#a#a#a#a#c",
"#i#j#k.o.p#i#j.p#l#k#j#l#j#m#n",
".g.g.f.e.b#o.g.c.c.c.c.d.c.f.b"};
