/* XPM */
static char *dummy[]={
"15 23 83 2",
"Qt c #101010",
"#q c #1d1d1c",
".d c #1e1d1c",
".g c #1e1e1d",
".b c #1f1e1e",
".c c #1f1f1e",
".e c #201f1f",
".f c #20201f",
"#g c #212020",
"#j c #212120",
"#e c #222120",
"#i c #222220",
"#f c #232220",
"#c c #232221",
"#h c #232321",
"#d c #242321",
"## c #242322",
"#a c #252422",
"#. c #252423",
".6 c #262523",
".a c #262524",
".5 c #262525",
".9 c #262624",
".7 c #272624",
".Y c #272625",
".4 c #272725",
".8 c #272726",
".2 c #282725",
".Z c #282726",
".0 c #292826",
".W c #292827",
".X c #2a2928",
".R c #31302f",
".S c #32312f",
".U c #323130",
".Q c #333231",
".# c #343332",
".N c #373635",
".P c #383735",
".O c #383736",
".M c #383836",
".E c #3d3c3b",
".F c #3e3d3b",
".I c #3e3d3c",
".L c #3e3e3c",
".K c #3f3e3d",
".A c #444342",
"#b c #444343",
".z c #454442",
".B c #454443",
".C c #454543",
".D c #464544",
".3 c #464645",
".1 c #474646",
".x c #4b4a48",
".w c #4b4a49",
".u c #4b4b49",
".v c #4b4b4a",
".y c #4c4b4b",
".T c #4e4d4c",
".V c #4f4e4d",
"#o c #51504f",
".t c #515050",
".p c #515150",
".n c #525150",
".r c #525250",
"#l c #525251",
".q c #535250",
".o c #535251",
"#k c #535252",
"#n c #535352",
".s c #545351",
"#m c #545353",
"#p c #545453",
".J c #575655",
".H c #585755",
".G c #585756",
".j c #858585",
".i c #868685",
".m c #878685",
".l c #878786",
".k c #888787",
".h c #888887",
"QtQtQtQtQtQtQtQtQtQtQtQtQtQtQt",
".#.#.#.#.#.#.#.#.#.#.#.#.#.#.#",
".a.a.a.a.a.a.a.a.a.a.a.a.a.a.a",
".a.a.a.a.a.a.a.a.a.a.a.a.a.a.a",
".b.c.d.e.c.f.d.d.g.d.d.f.c.c.f",
".h.i.j.k.k.l.i.l.m.m.i.i.k.h.i",
".n.n.o.o.o.p.n.n.q.r.n.n.s.t.o",
".u.v.w.v.x.w.v.v.w.v.x.y.v.w.v",
".z.A.B.A.A.B.B.A.A.z.A.A.C.D.C",
".E.E.F.G.E.H.E.G.I.G.F.J.K.L.K",
".M.N.N.O.O.N.P.N.N.N.N.P.O.M.N",
".Q.R.S.T.U.V.U.T.S.T.U.T.S.R.Q",
".W.X.Y.Z.Z.Z.Z.0.0.W.Z.Z.Z.Z.W",
".W.W.W.1.W.Y.Y.2.Y.2.2.3.Y.0.Z",
".Y.a.a.Z.4.Z.5.5.5.4.Z.Z.Z.Z.Y",
".6.Y.7.D.8.4.8.4.8.4.8.3.4.Y.Y",
".6.9.a#..9.Y.9.Y.9.Y.a#.#.###.",
"#.#a##.B.a.B#..C.a#b#..B#.#c##",
"#d#c#c#.#e#f#f#f#.#c#d#####d#c",
"#c#e###g#e#c#c#e#e#c#c#f#c#f#e",
"#h#i###j#c#####e#c#c#c#c#c#c#e",
"#k#l#m.o.p#k#l.p#n#m#l#n#l#o#p",
".g.g.f.e.b#q.g.c.c.c.c.d.c.f.b"};
