/* XPM */
static char *dummy[]={
"15 23 85 2",
"Qt c #101010",
"#s c #1d1d1c",
".d c #1e1d1c",
".g c #1e1e1d",
".b c #1f1e1e",
".c c #1f1f1e",
".e c #201f1f",
".f c #20201f",
"#i c #212020",
"#l c #212120",
"#g c #222120",
"#k c #222220",
"#h c #232220",
"#e c #232221",
"#j c #232321",
"#f c #242321",
"## c #242322",
"#a c #252422",
"#. c #252423",
".5 c #262523",
".a c #262524",
".4 c #262525",
".9 c #262624",
".6 c #272624",
".X c #272625",
".3 c #272725",
".8 c #272726",
".1 c #282725",
".Y c #282726",
".Z c #292826",
".V c #292827",
".W c #2a2928",
".Q c #31302f",
".R c #32312f",
".T c #323130",
".P c #333231",
".# c #343332",
".M c #373635",
".O c #383735",
".N c #383736",
".L c #383836",
".E c #3d3c3b",
".F c #3e3d3b",
".H c #3e3d3c",
".K c #3e3e3c",
".J c #3f3e3d",
".A c #444342",
".z c #454442",
".B c #454443",
".C c #454543",
".D c #464544",
".x c #4b4a48",
".w c #4b4a49",
".u c #4b4b49",
".v c #4b4b4a",
".y c #4c4b4b",
"#q c #51504f",
".t c #515050",
".p c #515150",
".n c #525150",
".r c #525250",
"#n c #525251",
".q c #535250",
".o c #535251",
"#m c #535252",
"#p c #535352",
".s c #545351",
"#o c #545353",
"#r c #545453",
"#c c #646463",
"#d c #656463",
"#b c #656464",
".7 c #656564",
".2 c #666565",
".0 c #666665",
".S c #6b6a6a",
".U c #6b6b6a",
".I c #717070",
".G c #717170",
".j c #858585",
".i c #868685",
".m c #878685",
".l c #878786",
".k c #888787",
".h c #888887",
"QtQtQtQtQtQtQtQtQtQtQtQtQtQtQt",
".#.#.#.#.#.#.#.#.#.#.#.#.#.#.#",
".a.a.a.a.a.a.a.a.a.a.a.a.a.a.a",
".a.a.a.a.a.a.a.a.a.a.a.a.a.a.a",
".b.c.d.e.c.f.d.d.g.d.d.f.c.c.f",
".h.i.j.k.k.l.i.l.m.m.i.i.k.h.i",
".n.n.o.o.o.p.n.n.q.r.n.n.s.t.o",
".u.v.w.v.x.w.v.v.w.v.x.y.v.w.v",
".z.A.B.A.A.B.B.A.A.z.A.A.C.D.C",
".E.E.F.G.E.G.E.G.H.G.F.I.J.K.J",
".L.M.M.N.N.M.O.M.M.M.M.O.N.L.M",
".P.Q.R.S.T.U.T.S.R.S.T.S.R.Q.P",
".V.W.X.Y.Y.Y.Y.Z.Z.V.Y.Y.Y.Y.V",
".V.V.V.0.V.X.X.1.X.1.1.2.X.Z.Y",
".X.a.a.Y.3.Y.4.4.4.3.Y.Y.Y.Y.X",
".5.X.6.7.8.3.8.3.8.3.8.0.3.X.X",
".5.9.a#..9.X.9.X.9.X.a#.#.###.",
"#.#a###b.a#b#..7.a#c#.#d#.#e##",
"#f#e#e#.#g#h#h#h#.#e#f#####f#e",
"#e#g###i#g#e#e#g#g#e#e#h#e#h#g",
"#j#k###l#e#####g#e#e#e#e#e#e#g",
"#m#n#o.o.p#m#n.p#p#o#n#p#n#q#r",
".g.g.f.e.b#s.g.c.c.c.c.d.c.f.b"};
