/* XPM */
static char *dummy[]={
"15 23 83 2",
"Qt c #101010",
"#q c #1d1d1c",
".d c #1e1d1c",
".g c #1e1e1d",
".b c #1f1e1e",
".c c #1f1f1e",
".e c #201f1f",
".f c #20201f",
"#g c #212020",
"#j c #212120",
"#e c #222120",
"#i c #222220",
"#f c #232220",
"#c c #232221",
"#h c #232321",
"#d c #242321",
"#. c #242322",
"## c #252422",
".9 c #252423",
"#a c #252523",
".5 c #262523",
".a c #262524",
".4 c #262525",
".8 c #262624",
".6 c #272624",
".V c #272625",
".3 c #272725",
".7 c #272726",
".2 c #282725",
".W c #282726",
".X c #292826",
".T c #292827",
".U c #2a2928",
".P c #31302f",
".Q c #32312f",
".R c #323130",
".O c #333231",
".# c #343332",
".L c #373635",
".N c #383735",
".M c #383736",
".K c #383836",
".E c #3d3c3b",
".F c #3e3d3b",
".G c #3e3d3c",
".J c #3e3e3c",
".I c #3f3e3d",
".A c #444342",
"#b c #444343",
".z c #454442",
".B c #454443",
".C c #454543",
".D c #464544",
".0 c #464645",
".1 c #474645",
".Z c #474646",
".Y c #484746",
".x c #4b4a48",
".w c #4b4a49",
".u c #4b4b49",
".v c #4b4b4a",
".y c #4c4b4b",
".S c #4e4d4c",
"#o c #51504f",
".t c #515050",
".p c #515150",
".n c #525150",
".r c #525250",
"#l c #525251",
".q c #535250",
".o c #535251",
"#k c #535252",
"#n c #535352",
".s c #545351",
"#m c #545353",
"#p c #545453",
".H c #585756",
".j c #858585",
".i c #868685",
".m c #878685",
".l c #878786",
".k c #888787",
".h c #888887",
"QtQtQtQtQtQtQtQtQtQtQtQtQtQtQt",
".#.#.#.#.#.#.#.#.#.#.#.#.#.#.#",
".a.a.a.a.a.a.a.a.a.a.a.a.a.a.a",
".a.a.a.a.a.a.a.a.a.a.a.a.a.a.a",
".b.c.d.e.c.f.d.d.g.d.d.f.c.c.f",
".h.i.j.k.k.l.i.l.m.m.i.i.k.h.i",
".n.n.o.o.o.p.n.n.q.r.n.n.s.t.o",
".u.v.w.v.x.w.v.v.w.v.x.y.v.w.v",
".z.A.B.A.A.B.B.A.A.z.A.A.C.D.C",
".E.E.F.G.E.F.E.G.G.H.F.E.I.J.I",
".K.L.L.M.M.L.N.L.L.L.L.N.M.K.L",
".O.P.Q.P.R.R.R.P.Q.P.R.S.Q.P.O",
".T.U.V.W.W.W.W.X.X.T.W.W.W.W.T",
".T.Y.T.Z.T.0.V.1.V.1.2.0.V.Y.W",
".V.a.a.W.3.W.4.4.4.3.W.W.W.W.V",
".5.V.6.a.7.3.7.3.7.3.7.0.3.V.V",
".5.8.a.9.8.V.8.V.8.V.a.9.9#..9",
".9###..9.a.9.9#a.a#b.9##.9#c#.",
"#d#c#c.9#e#f#f#f.9#c#d#.#.#d#c",
"#c#e#.#g#e#c#c#e#e#c#c#f#c#f#e",
"#h#i#.#j#c#.#.#e#c#c#c#c#c#c#e",
"#k#l#m.o.p#k#l.p#n#m#l#n#l#o#p",
".g.g.f.e.b#q.g.c.c.c.c.d.c.f.b"};
