/* XPM */
static char *dummy[]={
"2 23 29 1",
". c #101010",
"c c #1e1e1d",
"b c #1f1e1d",
"A c #1f1f1e",
"x c #232321",
"w c #242322",
"v c #242422",
"u c #252523",
"a c #262524",
"t c #262624",
"s c #272625",
"r c #272725",
"q c #282726",
"p c #282826",
"o c #2a2928",
"m c #323130",
"n c #323230",
"# c #343332",
"l c #383836",
"k c #3e3e3c",
"j c #464543",
"h c #4b4b4a",
"i c #4c4b4b",
"f c #515050",
"g c #535250",
"z c #535352",
"y c #545353",
"e c #858585",
"d c #868585",
"..",
"##",
"aa",
"aa",
"bc",
"de",
"fg",
"hi",
"jj",
"kk",
"ll",
"mn",
"oo",
"pq",
"rr",
"rs",
"ta",
"uu",
"vw",
"xx",
"ww",
"yz",
"AA"};
