/* XPM */
static char *dummy[]={
"8 23 71 2",
".b c None",
"Qt c #101010",
".l c #121212",
".f c #131212",
".# c #131313",
".a c #191818",
".2 c #1d1d1c",
".A c #1e1e1d",
".w c #1f1e1d",
".I c #1f1e1e",
".E c #1f1f1e",
".7 c #201f1f",
".Z c #20201f",
"#c c #212020",
".m c #212120",
".4 c #222120",
".n c #222221",
"#b c #232221",
".s c #232322",
".0 c #242322",
".X c #242323",
".3 c #252423",
"#e c #252524",
".W c #262523",
".g c #262524",
".T c #262525",
".P c #272625",
".o c #272725",
".R c #282726",
"#d c #292828",
".h c #2a2928",
"#a c #2a2929",
".e c #2a2a2a",
".r c #2c2c2a",
".j c #2c2c2c",
".8 c #2d2d2c",
".M c #31302f",
".i c #323131",
".N c #323231",
".c c #343332",
".d c #353434",
".J c #363534",
".k c #363636",
".K c #383837",
".F c #3c3b3a",
".G c #3e3d3d",
"## c #40403f",
".B c #434241",
".C c #464544",
".y c #4b4a49",
".x c #4c4b4b",
"#. c #4c4c4b",
".9 c #4f4f4e",
".6 c #575656",
".5 c #595958",
".q c #5a5959",
".1 c #5d5c5b",
".t c #5e5d5d",
".Y c #5f5f5e",
".V c #5f5f5f",
".U c #636262",
".S c #646464",
".Q c #686767",
".u c #6e6d6c",
".O c #6f6e6e",
".v c #727271",
".L c #737272",
".p c #767675",
".H c #777676",
".D c #7c7b7b",
".z c #818080",
"QtQtQtQt.#.a.b.b",
".c.c.c.c.d.e.f.b",
".g.g.g.g.h.i.j.a",
".g.g.g.g.g.h.k.l",
".m.n.o.g.g.g.cQt",
".p.q.r.s.g.g.cQt",
".t.u.v.w.g.g.cQt",
".x.y.z.A.g.g.cQt",
".B.C.D.E.g.g.cQt",
".F.G.H.I.g.g.cQt",
".J.K.L.E.g.g.cQt",
".M.N.O.A.g.g.cQt",
".h.P.Q.w.g.g.cQt",
".P.R.S.A.g.g.cQt",
".T.P.U.A.g.g.cQt",
".P.P.V.I.g.g.cQt",
".W.X.Y.Z.g.g.cQt",
".0.T.1.2.g.g.cQt",
".3.4.5.2.g.g.cQt",
".4.4.6.7.g.g.cQt",
".8.F.9.E.g.g.cQt",
"#.###a#b.g.g.cQt",
"#c.m#d#e.g.g.cQt"};
