/* XPM */
static char *dummy[]={
"8 23 67 2",
"Qt c None",
".b c #101010",
".k c #121212",
".c c #131212",
".a c #131313",
".# c #191818",
".X c #1d1d1c",
".B c #1e1e1d",
".x c #1f1e1d",
".t c #1f1e1e",
".0 c #1f1f1e",
".U c #20201f",
".o c #21201f",
".n c #222120",
".p c #232322",
".3 c #242322",
".2 c #242423",
".Z c #252423",
".W c #252424",
"## c #252524",
".j c #262524",
".T c #262525",
".R c #272624",
".O c #272625",
".m c #272726",
".Q c #282726",
"#a c #292828",
".8 c #292929",
".i c #2a2928",
".d c #2a2a2a",
".q c #2c2c2b",
".g c #2c2c2c",
".7 c #2d2d2c",
".L c #31302f",
".h c #323131",
".M c #323230",
".f c #343332",
".e c #353434",
".l c #363636",
".I c #373635",
".J c #383836",
".6 c #3c3b3b",
".G c #3e3d3c",
".9 c #414140",
".E c #444342",
".D c #454443",
".A c #4b4a49",
".z c #4b4b49",
"#. c #4d4d4c",
".5 c #4e4e4d",
".4 c #585756",
".r c #595958",
".1 c #5b5a59",
".Y c #5c5c5b",
".w c #5d5d5c",
".V c #5f5f5e",
".S c #646362",
".P c #646464",
".N c #666665",
".v c #6c6c6b",
".K c #6f6f6e",
".H c #747372",
".u c #757473",
".s c #767575",
".F c #787776",
".C c #7c7c7b",
".y c #818180",
"QtQt.#.a.b.b.b.b",
"Qt.c.d.e.f.f.f.f",
".#.g.h.i.j.j.j.j",
".k.l.i.j.j.j.j.j",
".b.f.j.j.j.m.n.o",
".b.f.j.j.p.q.r.s",
".b.f.j.j.t.u.v.w",
".b.f.j.j.x.y.z.A",
".b.f.j.j.B.C.D.E",
".b.f.j.j.t.F.G.G",
".b.f.j.j.B.H.I.J",
".b.f.j.j.t.K.L.M",
".b.f.j.j.t.N.i.O",
".b.f.j.j.B.P.Q.R",
".b.f.j.j.B.S.T.j",
".b.f.j.j.U.V.W.O",
".b.f.j.j.X.w.j.O",
".b.f.j.j.B.Y.j.Z",
".b.f.j.j.0.1.2.3",
".b.f.j.j.0.4.n.n",
".b.f.j.j.U.5.6.7",
".b.f.j.j.n.8.9#.",
".b.f.j.j###a.n.t"};
